<?xml version="1.0" encoding="UTF-8" standalone="no"?>
<!DOCTYPE svg PUBLIC "-//W3C//DTD SVG 1.1//EN" "http://www.w3.org/Graphics/SVG/1.1/DTD/svg11.dtd">
<svg width="100%" height="100%" viewBox="0 0 3225 3225" version="1.1" xmlns="http://www.w3.org/2000/svg" xmlns:xlink="http://www.w3.org/1999/xlink" xml:space="preserve" xmlns:serif="http://www.serif.com/" style="fill-rule:evenodd;clip-rule:evenodd;stroke-linecap:round;stroke-linejoin:round;stroke-miterlimit:1.5;">
    <g transform="matrix(1,0,0,1,-242.059121,-1236.898743)">
        <g transform="matrix(1.214752,0,0,1.214752,-394.713611,-613.378019)">
            <path d="M2415.155,2851.93C2419.704,2884.273 2422.065,2917.408 2422.065,2951.147C2422.065,3306.394 2160.352,3594.809 1837.996,3594.809C1515.64,3594.809 1253.928,3306.394 1253.928,2951.147C1253.928,2908.461 1257.706,2866.74 1264.915,2826.369C1296.895,3116.511 1543.128,3342.522 1841.732,3342.522C2131.508,3342.522 2371.964,3129.677 2415.155,2851.93Z" style="fill:rgb(204,204,204);stroke:rgb(174,180,191);stroke-width:0.82px;"/>
        </g>
        <g transform="matrix(-0.890699,-2.448893,2.452083,-0.891859,1925.144558,2628.470892)">
            <path d="M119.342,-3.56C118.267,-5.386 116.767,-15.552 110.488,-30.734C99.819,-56.53 79.664,-77.97 53.347,-89.333C51.921,-89.949 39.766,-96.131 21.544,-98.427C21.099,-98.483 18.161,-98.976 8.969,-99.296C3.684,-99.48 1.627,-99.2 -0.994,-99.226C-32.632,-99.544 -58.521,-80.69 -70.865,-56.553C-79.269,-40.12 -80.602,-22.735 -78.618,-12.017C-78.321,-10.413 -75.377,10.717 -53.931,23.645C-41.219,31.308 -27.907,31.566 -23.364,30.953C-13.487,29.622 -5.984,22.652 -2.538,15.357C-1.016,12.135 -0.552,9.478 -0.51,9.367C-0.475,9.273 0.064,8.329 0.754,6.522C0.964,5.971 0.942,5.786 1.235,5.677C1.909,5.425 2.134,5.213 2.167,5.204C2.205,5.175 2.274,5.13 2.381,5.065C4.96,3.492 4.788,0.449 4.816,0.393C4.896,0.231 5.025,0.097 5.106,-0.065L4.857,0.22C4.911,-1.049 5.305,-4.26 2.287,-7.883C2.239,-7.941 2.189,-7.997 2.139,-8.054C2.1,-8.098 2.099,-8.091 1.604,-8.553C1.297,-8.583 0.907,-8.635 -0.01,-8.641C-1.865,-9.022 -3.829,-9.057 -5.576,-9.787C-6.375,-10.121 -10.978,-12.044 -13.228,-17.429C-13.571,-18.25 -15.549,-22.985 -13.228,-28.552C-10.978,-33.947 -6.375,-35.861 -5.576,-36.194C-2.4,-37.514 -2.329,-37.399 1.106,-37.312C3.264,-37.257 4.977,-37.038 4.986,-37.039C7.317,-37.316 18.871,-39.341 32.776,-32.068C32.824,-32.043 37.018,-29.673 41.56,-25.271C48.847,-18.207 52.165,-10.776 53.361,-7.987C53.365,-7.978 54.683,-4.585 55.602,0.072C56.696,5.616 57.28,14.542 57,17.256C54.232,44.15 38.463,70.444 11.21,84.932C-8.215,95.258 -28.011,96.777 -46.766,94.268C-94.502,87.881 -134.108,52.962 -146.547,5.817C-153.48,-20.456 -151.495,-54.22 -138.027,-85.275C-121.283,-123.882 -89.195,-153.888 -49.106,-167.965C-33.883,-173.31 -17.672,-176.279 -0.989,-176.575C0.316,-176.598 12.05,-176.362 23.454,-174.244C40.194,-171.134 56.491,-165.698 73.095,-156.68C85.583,-149.897 92.707,-144.101 94.052,-143.049C138.363,-108.401 152.036,-54.754 157.445,-1.015C158.043,4.931 158.253,31.72 158.25,31.796C157.225,56.591 149.724,67.119 151.962,79.818C153.509,88.593 163.062,95.041 177.667,96.161C183.465,96.606 188.539,96.906 195.047,94.975C204.995,92.023 211.63,83.901 212.006,75.934C212.454,66.45 205.694,55.593 200.855,42.847C195.44,28.585 200.027,15.05 216.023,7.418C225.085,3.095 239.991,-0.11 251.499,-0.546C312.351,-2.849 346.534,55.037 318.884,78.696C317.933,79.509 310.848,85.044 316.247,87.592C323.304,90.922 331.925,93.623 347.008,93.914C358.2,94.13 366.581,91.703 370.014,90.657C374.756,89.211 378.4,91.068 379.046,91.397C380.398,92.086 381.648,93.043 382.636,94.194C383.116,94.753 385.883,97.977 385.479,102.944C385.088,107.757 381.959,110.435 381.416,110.9C379.342,112.676 379.252,112.583 376.656,113.434C335.866,126.803 295.448,110.038 285.254,91.885C278.97,80.694 281.909,67.394 292.233,64.053C292.877,63.844 301.058,62.078 301.177,57.888C303.305,54.588 298.182,45.811 284.536,36.306C265.867,23.303 248.302,28.662 243.39,29.838C238.024,31.122 234.711,38.587 236.783,42.629C242.432,53.651 255.51,65.245 247.45,90.882C243.808,102.466 234.397,114.581 213.802,126.31C212.127,127.264 203.679,134.02 182.279,132.694C172.461,132.085 144.846,126.321 126.759,111.609C123.081,108.617 106.917,94.959 114.457,71.489C115.034,69.694 122.142,34.137 121.289,19C120.754,9.488 118.903,-2.475 119.342,-3.56ZM2.734,5.053C2.966,4.994 3.198,4.935 3.429,4.87C3.194,4.914 2.948,4.985 2.734,5.053Z" style="fill:rgb(234,136,45);"/>
        </g>
    </g>
</svg>
